<svg xmlns="http://www.w3.org/2000/svg" width="26.98" height="15.632" viewBox="0 0 26.98 15.632"><path d="M11.777,2.777,7.066,13.269H5.889L1.178,2.777V15.41H0V.1H1.178L6.531,11.984,11.777.1h1.178V15.517H11.777Z" transform="translate(0 0.007)" fill="#fff"/><path d="M25.97,10.814a4.345,4.345,0,0,1-.428,2.034,4.359,4.359,0,0,1-1.285,1.5,5.435,5.435,0,0,1-1.927.964,8.15,8.15,0,0,1-2.248.321,9.8,9.8,0,0,1-1.713-.107c-.535-.107-1.071-.214-1.5-.321a3.318,3.318,0,0,1-1.392-.642A11.379,11.379,0,0,1,14.3,13.6l2.463-2.463a2.946,2.946,0,0,0,1.606.857,11.8,11.8,0,0,0,1.927.214c1.5,0,2.141-.428,2.141-1.392a1.727,1.727,0,0,0-.321-.964,1.9,1.9,0,0,0-1.071-.428l-1.82-.214a4.886,4.886,0,0,1-3.1-1.392,4.1,4.1,0,0,1-1.071-3.1,4.2,4.2,0,0,1,.428-1.927,4.826,4.826,0,0,1,1.071-1.5A5.752,5.752,0,0,1,18.261.214,14.573,14.573,0,0,1,20.51,0,9.018,9.018,0,0,1,23.4.428,6.114,6.114,0,0,1,25.649,1.82L23.293,4.176a2.331,2.331,0,0,0-.857-.535,2.017,2.017,0,0,0-.857-.214,1.822,1.822,0,0,0-.749-.107H20.4a2.357,2.357,0,0,0-.857.107,2.34,2.34,0,0,0-.535.321,2.34,2.34,0,0,0-.321.535.8.8,0,0,0-.107.535.393.393,0,0,0,.107.321c0,.107.107.321.214.321a1.478,1.478,0,0,0,.428.321c.214.107.428.107.642.214l1.82.214a5.38,5.38,0,0,1,3,1.285,4.074,4.074,0,0,1,.964,1.392A5.928,5.928,0,0,1,25.97,10.814Z" transform="translate(1.01)" fill="#fff"/></svg>