<svg xmlns="http://www.w3.org/2000/svg" viewBox="0 0 27 14.84"><path d="m27,7.68c-.19.64-.82,1.05-1.49.96-8.19-.01-12.8,0-20.99,0h-.41c.13.14.21.23.3.31,1.28,1.28,2.57,2.56,3.85,3.83.33.3.46.78.32,1.21-.11.43-.46.75-.9.83-.42.09-.85-.05-1.14-.37-1.16-1.16-2.33-2.32-3.49-3.47-.87-.87-1.73-1.73-2.6-2.59-.52-.42-.6-1.18-.19-1.7.05-.07.12-.13.19-.19C2.48,4.48,4.5,2.46,6.53.45c.41-.52,1.17-.6,1.69-.19.52.41.6,1.17.19,1.69-.06.07-.13.14-.2.2-1.27,1.27-2.54,2.53-3.81,3.79-.08.08-.17.14-.25.21l.02.08h.33c8.2,0,12.82,0,21.02,0,.67-.09,1.3.32,1.49.96v.48Z"/></svg>