<svg xmlns="http://www.w3.org/2000/svg" viewBox="0 0 35.62 35.62"><path d="m17.81,11.47l-1.46,1.43,3.9,3.89h-9.16v2.07h9.16l-3.9,3.86,1.46,1.46,6.34-6.37-6.34-6.34ZM17.81,0c2.38-.01,4.73.47,6.92,1.41,4.27,1.82,7.67,5.22,9.5,9.49.94,2.18,1.42,4.53,1.4,6.9.02,2.39-.46,4.76-1.41,6.95-1.82,4.27-5.22,7.66-9.49,9.47-2.18.94-4.53,1.41-6.9,1.4-2.39.02-4.76-.46-6.95-1.4-4.27-1.8-7.67-5.19-9.47-9.46C.46,22.57-.01,20.21,0,17.82c-.01-2.38.46-4.73,1.4-6.91C3.2,6.63,6.6,3.23,10.87,1.41,13.06.46,15.42-.02,17.81,0Zm.01,2.07c-4.19-.07-8.23,1.6-11.15,4.61-3,2.92-4.67,6.94-4.6,11.13-.07,4.19,1.59,8.22,4.6,11.15,2.92,3.01,6.95,4.67,11.14,4.6,4.19.07,8.21-1.6,11.13-4.6,3.01-2.92,4.68-6.95,4.61-11.14.07-4.19-1.6-8.22-4.61-11.13-2.91-3.01-6.94-4.68-11.13-4.61Z" style="isolation:isolate;"/></svg>