<svg xmlns="http://www.w3.org/2000/svg" viewBox="0 0 21.48 19.68"><path d="M0 13.14c.15-.36.49-.59.88-.62.49-.01.89.37.91.85v3.42c0 .75.34 1.1 1.08 1.1H18.6c.51.08 1-.26 1.08-.78.02-.1.02-.2 0-.3v-3.32c-.04-.49.31-.92.8-.96h.08c.49 0 .9.38.9.88V16.94c.04 1.3-.87 2.43-2.14 2.69-.03.01-.06.03-.09.05H2.24c-.06-.02-.11-.05-.17-.07-.92-.22-1.66-.91-1.95-1.81L0 17.44v-4.3Z"/><path d="m11.64 13.34 1.92-1.53c.38-.3.76-.61 1.14-.91.37-.32.93-.29 1.26.09.01.01.02.03.03.04.31.38.25.94-.14 1.25 0 0-.02.01-.02.02-1.48 1.19-2.96 2.38-4.45 3.56-.35.35-.91.35-1.26 0-1.44-1.14-2.87-2.29-4.3-3.44-.4-.28-.5-.84-.21-1.24.01-.01.02-.03.03-.04.3-.39.87-.46 1.25-.15.01 0 .02.02.04.03.89.7 1.78 1.42 2.67 2.12.07.06.15.11.27.21V.96c-.04-.49.33-.92.82-.96.16-.01.32.02.46.09.34.16.54.51.51.89V13.34Z"/></svg>