<?xml version="1.0" encoding="UTF-8"?><svg id="Vrstva_1" xmlns="http://www.w3.org/2000/svg" viewBox="0 0 37.19 27.87"><path d="m0,3.48c.15-.68.45-1.33.88-1.88C1.72.58,2.97,0,4.29,0,13.82,0,23.36,0,32.89,0c2.26-.06,4.16,1.69,4.29,3.96.01,1.02,0,2.03,0,3.05.02.21-.09.42-.28.52-4.29,2.93-8.58,5.87-12.87,8.82-.91.63-1.82,1.26-2.74,1.88-1.63,1.18-3.83,1.17-5.44-.02C10.66,14.65,5.47,11.09.27,7.53c-.09-.06-.18-.1-.27-.16v-3.89Zm18.63-.8H4.48c-.77-.09-1.47.45-1.56,1.22,0,.07-.01.14,0,.22,0,.54-.02,1.07.01,1.61.01.16.09.3.21.4,4.83,3.32,9.66,6.64,14.49,9.95.56.46,1.37.46,1.93,0,4.84-3.32,9.68-6.64,14.52-9.97.11-.09.18-.21.19-.35.02-.51,0-1.03,0-1.54,0-1.02-.56-1.55-1.67-1.55h-13.97Z"/><path d="m0,10.72c.71.47,1.4.98,2.15,1.41.53.26.84.83.77,1.41-.04,3.37-.02,6.74-.02,10.11,0,1,.57,1.53,1.65,1.53h28.06c1.08,0,1.65-.53,1.65-1.53,0-3.55,0-7.1,0-10.65-.02-.23.1-.44.3-.55.85-.57,1.69-1.15,2.58-1.76.02.09.03.18.03.27,0,4.3,0,8.59,0,12.89-.1,2.29-2.03,4.07-4.32,3.99-9.51,0-19.02,0-28.53,0-2.01.04-3.77-1.31-4.25-3.26-.02-.07-.05-.15-.07-.22v-13.66Z"/></svg>