<svg xmlns="http://www.w3.org/2000/svg" viewBox="0 0 14.31 14.317"><g id="pakFgo.tif" transform="translate(-756.086 -95.166)"><g id="Group_5455" data-name="Group 5455" transform="translate(756.086 95.166)"><path id="Path_106557" data-name="Path 106557" d="M768.241,109.483h-9.952a.981.981,0,0,1-.181-.024h0a2.393,2.393,0,0,1-2.02-2.4q0-2.579,0-5.157a2.318,2.318,0,0,1,.794-1.792q2.352-2.138,4.707-4.274a2.371,2.371,0,0,1,3.318.006q2.355,2.145,4.717,4.283a2.281,2.281,0,0,1,.668,1.044c.032.1.058.211.085.317a.687.687,0,0,1,.021.169V107.2a.737.737,0,0,1-.024.181c0,.007,0,.015,0,.022a2.4,2.4,0,0,1-1.52,1.932,3.43,3.43,0,0,1-.442.124A.678.678,0,0,1,768.241,109.483ZM763.2,108.11h4.652a.954.954,0,0,0,1.038-1.031q0-2.529,0-5.058a1.188,1.188,0,0,0-.4-.914q-2.3-2.094-4.6-4.179a.969.969,0,0,0-1.368.012q-2.374,2.155-4.748,4.31a.741.741,0,0,0-.192.315,1.444,1.444,0,0,0-.055.427q-.005,2.55,0,5.1a1.2,1.2,0,0,0,.04.317.952.952,0,0,0,.972.7Z" transform="translate(-756.086 -95.166)" fill="#fff"/></g></g></svg>