<?xml version="1.0" encoding="UTF-8"?><svg id="Vrstva_1" xmlns="http://www.w3.org/2000/svg" viewBox="0 0 42.12 42.13"><path d="m21.06,42.13c-5.79,0-6.46-.03-8.68-.13-7.67-.36-11.9-4.59-12.25-12.25-.1-2.22-.13-2.9-.13-8.69s.02-6.45.13-8.68C.48,4.72,4.72.48,12.38.12c2.2-.1,2.86-.12,8.68-.12s6.49.03,8.69.12c7.67.36,11.9,4.59,12.25,12.25.1,2.23.12,2.91.12,8.68s-.03,6.46-.12,8.69c-.35,7.66-4.59,11.9-12.25,12.25-2.23.1-2.9.13-8.69.13Zm.29-31.27c-5.97,0-10.82,4.84-10.82,10.82s4.84,10.82,10.82,10.82,10.82-4.84,10.82-10.82h0c0-5.98-4.85-10.81-10.82-10.82h0Zm11.24-2.96c-1.4,0-2.53,1.13-2.53,2.52,0,1.4,1.13,2.53,2.52,2.53,1.4,0,2.53-1.13,2.53-2.52,0,0,0,0,0,0,0-1.39-1.13-2.52-2.52-2.52Zm-11.24,20.79c-3.88,0-7.02-3.15-7.02-7.02,0-3.88,3.15-7.02,7.02-7.02,3.88,0,7.02,3.14,7.02,7.02,0,3.88-3.15,7.02-7.02,7.02Z"/></svg>