<svg xmlns="http://www.w3.org/2000/svg" viewBox="0 0 29.45 29.5"><path d="m26.84,14.48c-.22-6.55-5.48-11.81-12.03-12.03V0c1.91.04,3.8.47,5.54,1.25,3.43,1.52,6.17,4.26,7.69,7.69.78,1.75,1.21,3.63,1.25,5.54h-2.46Zm-6.91,0c-.11-1.31-.69-2.54-1.64-3.46-.93-.93-2.16-1.5-3.48-1.62v-2.46c1.97.1,3.83.93,5.22,2.33,1.41,1.37,2.25,3.23,2.35,5.2h-2.46Zm7.69,15.02c-3.45-.03-6.85-.87-9.92-2.46-6.6-3.3-11.94-8.65-15.24-15.24C.87,8.73.03,5.33,0,1.88-.02.89.76.06,1.76.04c.03,0,.06,0,.08,0h5.73c.37,0,.72.14.99.39.3.27.5.64.56,1.04l1.1,5.15c.06.35.05.7-.02,1.04-.06.3-.21.58-.43.8l-4.09,4.13c1.43,2.41,3.16,4.64,5.14,6.63,1.91,1.89,4.08,3.5,6.44,4.79l3.89-4.01c.25-.29.58-.51.94-.63.34-.12.71-.14,1.06-.06l4.87,1.06c.4.08.77.3,1.03.62.27.32.41.72.4,1.14v5.52c.02.99-.76,1.82-1.76,1.84-.03,0-.06,0-.08,0h0ZM4.46,10.35l3.31-3.35-.94-4.5H2.46c.02,1.18.18,2.36.49,3.5.4,1.48.91,2.94,1.51,4.35Zm15.1,14.85c1.17.54,2.39.96,3.64,1.27,1.25.32,2.52.51,3.8.57v-4.38l-4.21-.86-3.23,3.4Z"/></svg>