<svg xmlns="http://www.w3.org/2000/svg" viewBox="0 0 319.99 319.99"><path d="m193.94,160l102.56-102.56,21.15-21.15c3.12-3.12,3.12-8.19,0-11.31l-22.63-22.63c-3.12-3.12-8.19-3.12-11.31,0l-123.71,123.71L36.29,2.34c-3.12-3.12-8.19-3.12-11.31,0L2.34,24.97c-3.12,3.12-3.12,8.19,0,11.31l123.72,123.72L2.34,283.71c-3.12,3.12-3.12,8.19,0,11.31l22.63,22.63c3.12,3.12,8.19,3.12,11.31,0l123.72-123.71,102.56,102.56,21.15,21.15c3.12,3.12,8.19,3.12,11.31,0l22.63-22.63c3.12-3.12,3.12-8.19,0-11.31l-123.71-123.71Z"/></svg>